<svg id="visual" viewBox="0 0 675 900" width="675" height="900" xmlns="http://www.w3.org/2000/svg" xmlns:xlink="http://www.w3.org/1999/xlink" version="1.1"><path d="M67 0L47 64L66 129L48 193L66 257L81 321L65 386L58 450L52 514L49 579L91 643L59 707L64 771L58 836L70 900L0 900L0 836L0 771L0 707L0 643L0 579L0 514L0 450L0 386L0 321L0 257L0 193L0 129L0 64L0 0Z" fill="#d5e4f4"></path><path d="M57 0L38 64L47 129L64 193L50 257L74 321L72 386L58 450L76 514L42 579L60 643L37 707L70 771L50 836L39 900L0 900L0 836L0 771L0 707L0 643L0 579L0 514L0 450L0 386L0 321L0 257L0 193L0 129L0 64L0 0Z" fill="#aec2d7"></path><path d="M55 0L40 64L38 129L39 193L33 257L64 321L43 386L54 450L56 514L35 579L61 643L46 707L36 771L29 836L59 900L0 900L0 836L0 771L0 707L0 643L0 579L0 514L0 450L0 386L0 321L0 257L0 193L0 129L0 64L0 0Z" fill="#88a1bb"></path><path d="M39 0L26 64L24 129L39 193L24 257L26 321L46 386L34 450L32 514L33 579L37 643L31 707L40 771L39 836L24 900L0 900L0 836L0 771L0 707L0 643L0 579L0 514L0 450L0 386L0 321L0 257L0 193L0 129L0 64L0 0Z" fill="#6381a0"></path><path d="M16 0L23 64L23 129L25 193L29 257L23 321L25 386L29 450L18 514L23 579L17 643L20 707L24 771L27 836L16 900L0 900L0 836L0 771L0 707L0 643L0 579L0 514L0 450L0 386L0 321L0 257L0 193L0 129L0 64L0 0Z" fill="#3d6385"></path></svg>