<svg id="visual" viewBox="0 0 960 540" width="960" height="540" xmlns="http://www.w3.org/2000/svg" xmlns:xlink="http://www.w3.org/1999/xlink" version="1.1"><path d="M0 175L22.8 169C45.7 163 91.3 151 137 150.2C182.7 149.3 228.3 159.7 274 169.5C319.7 179.3 365.3 188.7 411.2 183.8C457 179 503 160 548.8 156.8C594.7 153.7 640.3 166.3 686 168.3C731.7 170.3 777.3 161.7 823 164.2C868.7 166.7 914.3 180.3 937.2 187.2L960 194L960 0L937.2 0C914.3 0 868.7 0 823 0C777.3 0 731.7 0 686 0C640.3 0 594.7 0 548.8 0C503 0 457 0 411.2 0C365.3 0 319.7 0 274 0C228.3 0 182.7 0 137 0C91.3 0 45.7 0 22.8 0L0 0Z" fill="#a8ecfe"></path><path d="M0 145L22.8 137C45.7 129 91.3 113 137 111.2C182.7 109.3 228.3 121.7 274 129.5C319.7 137.3 365.3 140.7 411.2 133.5C457 126.3 503 108.7 548.8 106C594.7 103.3 640.3 115.7 686 122C731.7 128.3 777.3 128.7 823 122.8C868.7 117 914.3 105 937.2 99L960 93L960 0L937.2 0C914.3 0 868.7 0 823 0C777.3 0 731.7 0 686 0C640.3 0 594.7 0 548.8 0C503 0 457 0 411.2 0C365.3 0 319.7 0 274 0C228.3 0 182.7 0 137 0C91.3 0 45.7 0 22.8 0L0 0Z" fill="#7fd1f6"></path><path d="M0 52L22.8 56.7C45.7 61.3 91.3 70.7 137 77.2C182.7 83.7 228.3 87.3 274 86.7C319.7 86 365.3 81 411.2 80.8C457 80.7 503 85.3 548.8 84.7C594.7 84 640.3 78 686 71.2C731.7 64.3 777.3 56.7 823 56.2C868.7 55.7 914.3 62.3 937.2 65.7L960 69L960 0L937.2 0C914.3 0 868.7 0 823 0C777.3 0 731.7 0 686 0C640.3 0 594.7 0 548.8 0C503 0 457 0 411.2 0C365.3 0 319.7 0 274 0C228.3 0 182.7 0 137 0C91.3 0 45.7 0 22.8 0L0 0Z" fill="#63b4ee"></path></svg>