<svg id="visual" viewBox="0 0 960 540" width="960" height="540" xmlns="http://www.w3.org/2000/svg" xmlns:xlink="http://www.w3.org/1999/xlink" version="1.1"><rect x="0" y="0" width="960" height="540" fill="#f5f5f5"></rect><defs><linearGradient id="grad1_0" x1="43.8%" y1="100%" x2="100%" y2="0%"><stop offset="14.444444444444446%" stop-color="#63b4ee" stop-opacity="1"></stop><stop offset="85.55555555555554%" stop-color="#63b4ee" stop-opacity="1"></stop></linearGradient></defs><defs><linearGradient id="grad1_1" x1="43.8%" y1="100%" x2="100%" y2="0%"><stop offset="14.444444444444446%" stop-color="#63b4ee" stop-opacity="1"></stop><stop offset="85.55555555555554%" stop-color="#b4d4f2" stop-opacity="1"></stop></linearGradient></defs><defs><linearGradient id="grad1_2" x1="43.8%" y1="100%" x2="100%" y2="0%"><stop offset="14.444444444444446%" stop-color="#f5f5f5" stop-opacity="1"></stop><stop offset="85.55555555555554%" stop-color="#b4d4f2" stop-opacity="1"></stop></linearGradient></defs><defs><linearGradient id="grad2_0" x1="0%" y1="100%" x2="56.3%" y2="0%"><stop offset="14.444444444444446%" stop-color="#63b4ee" stop-opacity="1"></stop><stop offset="85.55555555555554%" stop-color="#63b4ee" stop-opacity="1"></stop></linearGradient></defs><defs><linearGradient id="grad2_1" x1="0%" y1="100%" x2="56.3%" y2="0%"><stop offset="14.444444444444446%" stop-color="#b4d4f2" stop-opacity="1"></stop><stop offset="85.55555555555554%" stop-color="#63b4ee" stop-opacity="1"></stop></linearGradient></defs><defs><linearGradient id="grad2_2" x1="0%" y1="100%" x2="56.3%" y2="0%"><stop offset="14.444444444444446%" stop-color="#b4d4f2" stop-opacity="1"></stop><stop offset="85.55555555555554%" stop-color="#f5f5f5" stop-opacity="1"></stop></linearGradient></defs><g transform="translate(960, 540)"><path d="M-351 0C-329.3 -24.6 -307.6 -49.2 -284.7 -65C-261.8 -80.8 -237.8 -87.9 -241.5 -116.3C-245.1 -144.7 -276.5 -194.5 -270.5 -215.7C-264.5 -237 -221.2 -229.8 -198.3 -248.6C-175.4 -267.5 -173 -312.4 -152.3 -316.2C-131.6 -320.1 -92.7 -282.8 -64.3 -281.8C-35.9 -280.7 -17.9 -315.8 0 -351L0 0Z" fill="#d5e4f4"></path><path d="M-234 0C-219.5 -16.4 -205 -32.8 -189.8 -43.3C-174.5 -53.9 -158.5 -58.6 -161 -77.5C-163.4 -96.5 -184.3 -129.6 -180.3 -143.8C-176.3 -158 -147.4 -153.2 -132.2 -165.7C-116.9 -178.3 -115.3 -208.3 -101.5 -210.8C-87.8 -213.4 -61.8 -188.5 -42.9 -187.8C-23.9 -187.1 -12 -210.6 0 -234L0 0Z" fill="#8fc4f0"></path><path d="M-117 0C-109.8 -8.2 -102.5 -16.4 -94.9 -21.7C-87.3 -26.9 -79.3 -29.3 -80.5 -38.8C-81.7 -48.2 -92.2 -64.8 -90.2 -71.9C-88.2 -79 -73.7 -76.6 -66.1 -82.9C-58.5 -89.2 -57.7 -104.1 -50.8 -105.4C-43.9 -106.7 -30.9 -94.3 -21.4 -93.9C-12 -93.6 -6 -105.3 0 -117L0 0Z" fill="#63b4ee"></path></g><g transform="translate(0, 0)"><path d="M351 0C342.9 25 334.9 50 330.5 75.4C326.1 100.9 325.4 126.8 316.2 152.3C307 177.8 289.4 202.8 259.6 207C229.8 211.2 187.9 194.7 169 211.9C150.1 229.1 154.2 280 138 286.5C121.8 293 85.3 255 59 258.4C32.6 261.7 16.3 306.3 0 351L0 0Z" fill="#d5e4f4"></path><path d="M234 0C228.6 16.7 223.3 33.3 220.3 50.3C217.4 67.3 217 84.5 210.8 101.5C204.7 118.5 192.9 135.2 173 138C153.2 140.8 125.2 129.8 112.6 141.3C100 152.7 102.8 186.7 92 191C81.2 195.3 56.9 170 39.3 172.2C21.7 174.5 10.9 204.2 0 234L0 0Z" fill="#8fc4f0"></path><path d="M117 0C114.3 8.3 111.6 16.7 110.2 25.1C108.7 33.6 108.5 42.3 105.4 50.8C102.3 59.3 96.5 67.6 86.5 69C76.6 70.4 62.6 64.9 56.3 70.6C50 76.4 51.4 93.3 46 95.5C40.6 97.7 28.4 85 19.7 86.1C10.9 87.2 5.4 102.1 0 117L0 0Z" fill="#63b4ee"></path></g></svg>