<svg id="visual" viewBox="0 0 900 900" width="900" height="900" xmlns="http://www.w3.org/2000/svg" xmlns:xlink="http://www.w3.org/1999/xlink" version="1.1"><rect x="0" y="0" width="900" height="900" fill="#f5f5f5"></rect><defs><linearGradient id="grad1_0" x1="0%" y1="100%" x2="100%" y2="0%"><stop offset="30%" stop-color="#63b4ee" stop-opacity="1"></stop><stop offset="70%" stop-color="#63b4ee" stop-opacity="1"></stop></linearGradient></defs><defs><linearGradient id="grad1_1" x1="0%" y1="100%" x2="100%" y2="0%"><stop offset="30%" stop-color="#63b4ee" stop-opacity="1"></stop><stop offset="70%" stop-color="#b4d4f2" stop-opacity="1"></stop></linearGradient></defs><defs><linearGradient id="grad1_2" x1="0%" y1="100%" x2="100%" y2="0%"><stop offset="30%" stop-color="#f5f5f5" stop-opacity="1"></stop><stop offset="70%" stop-color="#b4d4f2" stop-opacity="1"></stop></linearGradient></defs><defs><linearGradient id="grad2_0" x1="0%" y1="100%" x2="100%" y2="0%"><stop offset="30%" stop-color="#63b4ee" stop-opacity="1"></stop><stop offset="70%" stop-color="#63b4ee" stop-opacity="1"></stop></linearGradient></defs><defs><linearGradient id="grad2_1" x1="0%" y1="100%" x2="100%" y2="0%"><stop offset="30%" stop-color="#b4d4f2" stop-opacity="1"></stop><stop offset="70%" stop-color="#63b4ee" stop-opacity="1"></stop></linearGradient></defs><defs><linearGradient id="grad2_2" x1="0%" y1="100%" x2="100%" y2="0%"><stop offset="30%" stop-color="#b4d4f2" stop-opacity="1"></stop><stop offset="70%" stop-color="#f5f5f5" stop-opacity="1"></stop></linearGradient></defs><g transform="translate(900, 900)"><path d="M-413.7 0C-416.7 -34.4 -419.7 -68.7 -392.9 -89.7C-366.1 -110.6 -309.6 -118.1 -291 -140.1C-272.5 -162.2 -291.9 -198.8 -294.8 -235.1C-297.6 -271.3 -283.9 -307.1 -257.9 -323.4C-231.9 -339.7 -193.5 -336.5 -162.3 -337C-131 -337.4 -106.9 -341.5 -81 -354.9C-55.1 -368.3 -27.6 -391 0 -413.7L0 0Z" fill="#d5e4f4"></path><path d="M-275.8 0C-277.8 -22.9 -279.8 -45.8 -261.9 -59.8C-244.1 -73.7 -206.4 -78.7 -194 -93.4C-181.6 -108.1 -194.6 -132.6 -196.5 -156.7C-198.4 -180.9 -189.3 -204.7 -171.9 -215.6C-154.6 -226.5 -129 -224.3 -108.2 -224.6C-87.3 -224.9 -71.2 -227.7 -54 -236.6C-36.8 -245.5 -18.4 -260.6 0 -275.8L0 0Z" fill="#8fc4f0"></path><path d="M-137.9 0C-138.9 -11.5 -139.9 -22.9 -131 -29.9C-122 -36.9 -103.2 -39.4 -97 -46.7C-90.8 -54.1 -97.3 -66.3 -98.3 -78.4C-99.2 -90.4 -94.6 -102.4 -86 -107.8C-77.3 -113.2 -64.5 -112.2 -54.1 -112.3C-43.7 -112.5 -35.6 -113.8 -27 -118.3C-18.4 -122.8 -9.2 -130.3 0 -137.9L0 0Z" fill="#63b4ee"></path></g><g transform="translate(0, 0)"><path d="M413.7 0C406 31.9 398.4 63.7 379.2 86.6C360.1 109.4 329.5 123.3 325.2 156.6C321 190 343 242.9 323.4 257.9C303.8 273 242.4 250.2 214.5 269C186.5 287.7 192 347.9 172.3 357.7C152.5 367.4 107.7 326.7 74.8 327.6C41.9 328.5 20.9 371.1 0 413.7L0 0Z" fill="#d5e4f4"></path><path d="M275.8 0C270.7 21.2 265.6 42.5 252.8 57.7C240.1 72.9 219.7 82.2 216.8 104.4C214 126.7 228.7 161.9 215.6 171.9C202.5 182 161.6 166.8 143 179.3C124.4 191.8 128 232 114.8 238.5C101.7 245 71.8 217.8 49.8 218.4C27.9 219 14 247.4 0 275.8L0 0Z" fill="#8fc4f0"></path><path d="M137.9 0C135.3 10.6 132.8 21.2 126.4 28.9C120 36.5 109.8 41.1 108.4 52.2C107 63.3 114.3 81 107.8 86C101.3 91 80.8 83.4 71.5 89.7C62.2 95.9 64 116 57.4 119.2C50.8 122.5 35.9 108.9 24.9 109.2C14 109.5 7 123.7 0 137.9L0 0Z" fill="#63b4ee"></path></g></svg>