<svg id="visual" viewBox="0 0 960 540" width="960" height="540" xmlns="http://www.w3.org/2000/svg"
	xmlns:xlink="http://www.w3.org/1999/xlink" version="1.1">
	<rect width="960" height="540" fill="#3d6385"></rect>
	<g>
		<g transform="translate(841 47)">
			<path
				d="M34.3 -30.7C41.6 -18.2 42.6 -4.1 41.3 12.6C40 29.3 36.4 48.5 24.4 56.6C12.4 64.7 -7.9 61.6 -20.6 52C-33.3 42.3 -38.3 26.1 -39.4 11.8C-40.5 -2.6 -37.5 -15.1 -30.3 -27.5C-23 -40 -11.5 -52.4 1 -53.2C13.5 -54 27 -43.1 34.3 -30.7Z"
				fill="none" stroke="#7fd1f6" stroke-width="20"></path>
		</g>
		<g transform="translate(479 155)">
			<path
				d="M4.4 -3.5C5.7 -1.9 6.7 -0.1 6.6 2.1C6.5 4.2 5.5 6.6 3.4 7.9C1.4 9.2 -1.6 9.3 -3.6 8.1C-5.7 6.9 -6.8 4.4 -7 2C-7.2 -0.3 -6.4 -2.3 -5 -3.9C-3.7 -5.4 -1.8 -6.4 -0.1 -6.3C1.6 -6.2 3.1 -5 4.4 -3.5Z"
				fill="none" stroke="#7fd1f6" stroke-width="20"></path>
		</g>
		<g transform="translate(38 286)">
			<path
				d="M7.2 -5.9C9.1 -3.3 10.2 -0.4 9.8 2.5C9.3 5.3 7.2 8 4.8 8.8C2.4 9.5 -0.5 8.2 -3.5 6.9C-6.5 5.6 -9.7 4.3 -11.1 1.6C-12.5 -1.1 -12.1 -5.2 -9.9 -7.8C-7.8 -10.4 -3.9 -11.5 -0.6 -11C2.6 -10.5 5.3 -8.4 7.2 -5.9Z"
				fill="none" stroke="#7fd1f6" stroke-width="20"></path>
		</g>
		<g transform="translate(698 413)">
			<path
				d="M18 -15.2C21.6 -9.8 21.7 -2.4 19.2 2.7C16.7 7.9 11.6 10.8 6.7 12.6C1.8 14.4 -2.9 15.2 -9.2 14.1C-15.4 13 -23 10 -24.5 5.2C-25.9 0.4 -21 -6.3 -15.9 -12C-10.8 -17.8 -5.4 -22.6 0.9 -23.3C7.2 -24 14.4 -20.6 18 -15.2Z"
				fill="none" stroke="#7fd1f6" stroke-width="20"></path>
		</g>
		<g transform="translate(896 505)">
			<path
				d="M6.7 -6.5C8.9 -2.7 10.9 0.1 11.2 4.1C11.5 8 10.1 13 7 14.5C3.9 15.9 -0.8 13.7 -5.2 11.4C-9.6 9.1 -13.7 6.6 -14.7 3.1C-15.8 -0.4 -13.8 -4.9 -10.8 -9C-7.9 -13.1 -3.9 -16.7 -0.8 -16.1C2.3 -15.4 4.6 -10.4 6.7 -6.5Z"
				fill="none" stroke="#7fd1f6" stroke-width="20"></path>
		</g>
		<g transform="translate(190 99)">
			<path
				d="M29.3 -22.7C35.4 -15.8 35.8 -3.8 34.1 9.4C32.4 22.6 28.5 36.9 18.6 43.7C8.6 50.5 -7.5 49.7 -20.5 43.2C-33.6 36.7 -43.6 24.5 -45 12.1C-46.4 -0.3 -39.1 -12.9 -30.2 -20.4C-21.3 -27.9 -10.6 -30.4 0.5 -30.8C11.7 -31.2 23.3 -29.5 29.3 -22.7Z"
				fill="none" stroke="#7fd1f6" stroke-width="20"></path>
		</g>
		<g transform="translate(523 434)">
			<path
				d="M10 -7.6C12.2 -5.1 12.9 -1 12.2 3.1C11.5 7.1 9.4 11.1 5.7 13.4C2.1 15.8 -3.1 16.4 -6.3 14.4C-9.5 12.3 -10.7 7.5 -10.8 3.5C-10.9 -0.5 -9.8 -3.7 -7.8 -6.2C-5.8 -8.6 -2.9 -10.2 0.5 -10.6C3.8 -11 7.7 -10.1 10 -7.6Z"
				fill="none" stroke="#7fd1f6" stroke-width="20"></path>
		</g>
		<g transform="translate(306 334)">
			<path
				d="M11.4 -8.7C13.8 -6.2 13.9 -1.5 13 3C12 7.5 9.9 11.9 6.2 14.1C2.5 16.3 -2.7 16.4 -6 14.2C-9.3 11.9 -10.6 7.3 -12.6 1.9C-14.6 -3.5 -17.3 -9.7 -15.3 -12.1C-13.3 -14.5 -6.7 -13.1 -1.1 -12.3C4.5 -11.5 9.1 -11.2 11.4 -8.7Z"
				fill="none" stroke="#7fd1f6" stroke-width="20"></path>
		</g>
		<g transform="translate(322 525)">
			<path
				d="M6.8 -5C8.4 -3.4 9 -0.6 8.4 1.8C7.7 4.2 5.9 6.2 3.7 7.1C1.5 7.9 -1 7.5 -2.3 6.3C-3.7 5.1 -4 3 -4 1.4C-4 -0.3 -3.8 -1.5 -3 -2.9C-2.3 -4.3 -1.2 -5.8 0.7 -6.4C2.6 -6.9 5.2 -6.6 6.8 -5Z"
				fill="none" stroke="#7fd1f6" stroke-width="20"></path>
		</g>
		<g transform="translate(391 10)">
			<path
				d="M24.1 -17.2C29.8 -12 32.2 -2.1 30.5 7.6C28.8 17.3 23.1 26.7 14.6 31.1C6.1 35.4 -5.1 34.7 -12.2 29.7C-19.3 24.6 -22.2 15.2 -22.3 7.2C-22.5 -0.8 -19.9 -7.3 -15.7 -12.1C-11.5 -17 -5.8 -20.1 1.7 -21.5C9.2 -22.9 18.3 -22.4 24.1 -17.2Z"
				fill="none" stroke="#7fd1f6" stroke-width="20"></path>
		</g>
		<g transform="translate(54 477)">
			<path
				d="M27.6 -21C33.4 -14.9 33.8 -3.5 31.5 7.5C29.3 18.5 24.2 29.2 16.5 32.2C8.7 35.1 -1.8 30.4 -10.1 24.9C-18.3 19.4 -24.3 13.1 -27.3 4.8C-30.3 -3.5 -30.4 -13.9 -25.4 -19.9C-20.4 -25.8 -10.2 -27.2 0.4 -27.6C11 -27.9 21.9 -27.1 27.6 -21Z"
				fill="none" stroke="#7fd1f6" stroke-width="20"></path>
		</g>
		<g transform="translate(808 229)">
			<path
				d="M15.7 -11.1C19.5 -7.8 21.1 -1.3 19.2 3.4C17.4 8 12 10.9 6.6 13.4C1.1 16 -4.3 18.2 -8.4 16.5C-12.4 14.9 -14.9 9.5 -16.4 3.6C-17.9 -2.3 -18.3 -8.7 -15.4 -11.8C-12.5 -14.9 -6.3 -14.8 -0.2 -14.7C5.9 -14.6 11.9 -14.4 15.7 -11.1Z"
				fill="none" stroke="#7fd1f6" stroke-width="20"></path>
		</g>
		<g transform="translate(646 43)">
			<path
				d="M10.9 -6.4C15.5 -2.9 21.6 1.7 21.7 6.5C21.9 11.3 16 16.3 10 18.1C4.1 19.9 -2.1 18.6 -8.4 16.1C-14.7 13.6 -21.1 9.9 -21.4 5.7C-21.8 1.4 -16.1 -3.4 -11.5 -6.9C-6.9 -10.4 -3.5 -12.6 -0.2 -12.5C3.1 -12.3 6.3 -9.9 10.9 -6.4Z"
				fill="none" stroke="#7fd1f6" stroke-width="20"></path>
		</g>
		<g transform="translate(945 339)">
			<path
				d="M11.6 -8.9C14.2 -6.1 14.7 -1.3 13.7 3.1C12.6 7.5 10.1 11.5 6.7 12.5C3.4 13.5 -0.6 11.6 -5.1 9.7C-9.6 7.9 -14.5 6.2 -15.2 3.4C-15.8 0.7 -12.2 -3.1 -9 -6C-5.7 -9 -2.9 -11.1 0.8 -11.8C4.5 -12.4 9.1 -11.6 11.6 -8.9Z"
				fill="none" stroke="#7fd1f6" stroke-width="20"></path>
		</g>
		<g transform="translate(24 53)">
			<path
				d="M20.2 -16.4C24.4 -10.8 24.9 -2.5 22.3 3.5C19.6 9.5 13.9 13.1 6.9 17.9C-0.1 22.6 -8.3 28.4 -12.1 26.2C-16 24 -15.4 13.7 -16.8 4.7C-18.1 -4.3 -21.4 -12 -18.9 -17.2C-16.4 -22.4 -8.2 -25 -0.1 -24.9C8 -24.9 16 -22 20.2 -16.4Z"
				fill="none" stroke="#7fd1f6" stroke-width="20"></path>
		</g>
		<g transform="translate(602 273)">
			<path
				d="M20 -13.3C28.9 -4.9 41.1 3.6 42.3 14.2C43.5 24.8 33.8 37.5 22.8 40C11.7 42.5 -0.7 34.9 -12.6 28.4C-24.6 21.8 -36 16.3 -38.4 8C-40.9 -0.2 -34.4 -11.3 -26.5 -19.5C-18.6 -27.7 -9.3 -33 -1.9 -31.6C5.6 -30.1 11.2 -21.7 20 -13.3Z"
				fill="none" stroke="#7fd1f6" stroke-width="20"></path>
		</g>
	</g>
</svg>