<svg id="visual" viewBox="0 0 675 900" width="675" height="900" xmlns="http://www.w3.org/2000/svg" xmlns:xlink="http://www.w3.org/1999/xlink" version="1.1"><rect x="0" y="0" width="675" height="900" fill="#f5f5f5"></rect><defs><linearGradient id="grad1_0" x1="0%" y1="100%" x2="100%" y2="0%"><stop offset="30%" stop-color="#63b4ee" stop-opacity="1"></stop><stop offset="70%" stop-color="#63b4ee" stop-opacity="1"></stop></linearGradient></defs><defs><linearGradient id="grad1_1" x1="0%" y1="100%" x2="100%" y2="0%"><stop offset="30%" stop-color="#63b4ee" stop-opacity="1"></stop><stop offset="70%" stop-color="#b4d4f2" stop-opacity="1"></stop></linearGradient></defs><defs><linearGradient id="grad1_2" x1="0%" y1="100%" x2="100%" y2="0%"><stop offset="30%" stop-color="#f5f5f5" stop-opacity="1"></stop><stop offset="70%" stop-color="#b4d4f2" stop-opacity="1"></stop></linearGradient></defs><defs><linearGradient id="grad2_0" x1="0%" y1="100%" x2="100%" y2="0%"><stop offset="30%" stop-color="#63b4ee" stop-opacity="1"></stop><stop offset="70%" stop-color="#63b4ee" stop-opacity="1"></stop></linearGradient></defs><defs><linearGradient id="grad2_1" x1="0%" y1="100%" x2="100%" y2="0%"><stop offset="30%" stop-color="#b4d4f2" stop-opacity="1"></stop><stop offset="70%" stop-color="#63b4ee" stop-opacity="1"></stop></linearGradient></defs><defs><linearGradient id="grad2_2" x1="0%" y1="100%" x2="100%" y2="0%"><stop offset="30%" stop-color="#b4d4f2" stop-opacity="1"></stop><stop offset="70%" stop-color="#f5f5f5" stop-opacity="1"></stop></linearGradient></defs><g transform="translate(675, 900)"><path d="M-337.5 0C-320.3 -20.8 -303.2 -41.6 -303.2 -69.2C-303.2 -96.8 -320.4 -131.1 -304.1 -146.4C-287.8 -161.8 -238.1 -158.2 -217.3 -173.3C-196.6 -188.5 -205 -222.3 -197.6 -247.8C-190.3 -273.4 -167.3 -290.6 -143.2 -297.3C-119 -304 -93.7 -300.2 -69.6 -305.2C-45.6 -310.1 -22.8 -323.8 0 -337.5L0 0Z" fill="#d5e4f4"></path><path d="M-225 0C-213.6 -13.9 -202.1 -27.8 -202.1 -46.1C-202.1 -64.5 -213.6 -87.4 -202.7 -97.6C-191.9 -107.9 -158.7 -105.5 -144.9 -115.6C-131.1 -125.6 -136.6 -148.2 -131.8 -165.2C-126.9 -182.3 -111.6 -193.7 -95.5 -198.2C-79.4 -202.7 -62.5 -200.1 -46.4 -203.4C-30.4 -206.7 -15.2 -215.9 0 -225L0 0Z" fill="#8fc4f0"></path><path d="M-112.5 0C-106.8 -6.9 -101.1 -13.9 -101.1 -23.1C-101.1 -32.3 -106.8 -43.7 -101.4 -48.8C-95.9 -53.9 -79.4 -52.7 -72.4 -57.8C-65.5 -62.8 -68.3 -74.1 -65.9 -82.6C-63.4 -91.1 -55.8 -96.9 -47.7 -99.1C-39.7 -101.3 -31.2 -100.1 -23.2 -101.7C-15.2 -103.4 -7.6 -107.9 0 -112.5L0 0Z" fill="#63b4ee"></path></g><g transform="translate(0, 0)"><path d="M337.5 0C338.4 26.5 339.2 52.9 329 75.1C318.8 97.3 297.6 115.2 284.7 137.1C271.8 159 267.4 184.9 251 200.1C234.5 215.3 206.1 219.8 184.6 231.4C163 243 148.3 261.7 128.9 267.6C109.4 273.4 85.2 266.4 63 275.9C40.7 285.4 20.4 311.5 0 337.5L0 0Z" fill="#d5e4f4"></path><path d="M225 0C225.6 17.6 226.2 35.3 219.4 50.1C212.6 64.9 198.4 76.8 189.8 91.4C181.2 106 178.3 123.3 167.3 133.4C156.4 143.6 137.4 146.5 123 154.3C108.7 162 98.9 174.5 85.9 178.4C73 182.3 56.8 177.6 42 183.9C27.1 190.3 13.6 207.6 0 225L0 0Z" fill="#8fc4f0"></path><path d="M112.5 0C112.8 8.8 113.1 17.6 109.7 25C106.3 32.4 99.2 38.4 94.9 45.7C90.6 53 89.1 61.6 83.7 66.7C78.2 71.8 68.7 73.3 61.5 77.1C54.3 81 49.4 87.2 43 89.2C36.5 91.1 28.4 88.8 21 92C13.6 95.1 6.8 103.8 0 112.5L0 0Z" fill="#63b4ee"></path></g></svg>