<svg id="visual" viewBox="0 0 675 900" width="675" height="900" xmlns="http://www.w3.org/2000/svg" xmlns:xlink="http://www.w3.org/1999/xlink" version="1.1"><path d="M610 900L630 836L611 771L629 707L611 643L596 579L612 514L619 450L625 386L628 321L586 257L618 193L613 129L619 64L607 0L675 0L675 64L675 129L675 193L675 257L675 321L675 386L675 450L675 514L675 579L675 643L675 707L675 771L675 836L675 900Z" fill="#d5e4f4"></path><path d="M620 900L639 836L630 771L613 707L627 643L603 579L605 514L619 450L601 386L635 321L617 257L640 193L607 129L627 64L638 0L675 0L675 64L675 129L675 193L675 257L675 321L675 386L675 450L675 514L675 579L675 643L675 707L675 771L675 836L675 900Z" fill="#aec2d7"></path><path d="M622 900L637 836L639 771L638 707L644 643L613 579L634 514L623 450L621 386L642 321L616 257L631 193L641 129L648 64L618 0L675 0L675 64L675 129L675 193L675 257L675 321L675 386L675 450L675 514L675 579L675 643L675 707L675 771L675 836L675 900Z" fill="#88a1bb"></path><path d="M638 900L651 836L653 771L638 707L653 643L651 579L631 514L643 450L645 386L644 321L640 257L646 193L637 129L638 64L653 0L675 0L675 64L675 129L675 193L675 257L675 321L675 386L675 450L675 514L675 579L675 643L675 707L675 771L675 836L675 900Z" fill="#6381a0"></path><path d="M661 900L654 836L654 771L652 707L648 643L654 579L652 514L648 450L659 386L654 321L660 257L657 193L653 129L650 64L661 0L675 0L675 64L675 129L675 193L675 257L675 321L675 386L675 450L675 514L675 579L675 643L675 707L675 771L675 836L675 900Z" fill="#3d6385"></path></svg>