<svg id="visual" viewBox="0 0 540 960" width="540" height="960" xmlns="http://www.w3.org/2000/svg" xmlns:xlink="http://www.w3.org/1999/xlink" version="1.1"><path d="M0 124L12.8 119.8C25.7 115.7 51.3 107.3 77 106.8C102.7 106.3 128.3 113.7 154 120.7C179.7 127.7 205.3 134.3 231.2 130.8C257 127.3 283 113.7 308.8 111.3C334.7 109 360.3 118 386 119.5C411.7 121 437.3 115 463 116.8C488.7 118.7 514.3 128.3 527.2 133.2L540 138L540 0L527.2 0C514.3 0 488.7 0 463 0C437.3 0 411.7 0 386 0C360.3 0 334.7 0 308.8 0C283 0 257 0 231.2 0C205.3 0 179.7 0 154 0C128.3 0 102.7 0 77 0C51.3 0 25.7 0 12.8 0L0 0Z" fill="#a8ecfe"></path><path d="M0 103L12.8 97.3C25.7 91.7 51.3 80.3 77 79C102.7 77.7 128.3 86.3 154 91.8C179.7 97.3 205.3 99.7 231.2 94.5C257 89.3 283 76.7 308.8 74.8C334.7 73 360.3 82 386 86.7C411.7 91.3 437.3 91.7 463 87.5C488.7 83.3 514.3 74.7 527.2 70.3L540 66L540 0L527.2 0C514.3 0 488.7 0 463 0C437.3 0 411.7 0 386 0C360.3 0 334.7 0 308.8 0C283 0 257 0 231.2 0C205.3 0 179.7 0 154 0C128.3 0 102.7 0 77 0C51.3 0 25.7 0 12.8 0L0 0Z" fill="#7fd1f6"></path><path d="M0 37L12.8 40.3C25.7 43.7 51.3 50.3 77 54.8C102.7 59.3 128.3 61.7 154 61.2C179.7 60.7 205.3 57.3 231.2 57.3C257 57.3 283 60.7 308.8 60.2C334.7 59.7 360.3 55.3 386 50.5C411.7 45.7 437.3 40.3 463 40C488.7 39.7 514.3 44.3 527.2 46.7L540 49L540 0L527.2 0C514.3 0 488.7 0 463 0C437.3 0 411.7 0 386 0C360.3 0 334.7 0 308.8 0C283 0 257 0 231.2 0C205.3 0 179.7 0 154 0C128.3 0 102.7 0 77 0C51.3 0 25.7 0 12.8 0L0 0Z" fill="#63b4ee"></path></svg>