<svg id="visual" viewBox="0 0 450 900" width="450" height="900" xmlns="http://www.w3.org/2000/svg" xmlns:xlink="http://www.w3.org/1999/xlink" version="1.1"><rect x="0" y="0" width="450" height="900" fill="#f5f5f5"></rect><defs><linearGradient id="grad1_0" x1="0%" y1="100%" x2="100%" y2="0%"><stop offset="30%" stop-color="#63b4ee" stop-opacity="1"></stop><stop offset="70%" stop-color="#63b4ee" stop-opacity="1"></stop></linearGradient></defs><defs><linearGradient id="grad1_1" x1="0%" y1="100%" x2="100%" y2="0%"><stop offset="30%" stop-color="#63b4ee" stop-opacity="1"></stop><stop offset="70%" stop-color="#b4d4f2" stop-opacity="1"></stop></linearGradient></defs><defs><linearGradient id="grad1_2" x1="0%" y1="100%" x2="100%" y2="0%"><stop offset="30%" stop-color="#f5f5f5" stop-opacity="1"></stop><stop offset="70%" stop-color="#b4d4f2" stop-opacity="1"></stop></linearGradient></defs><defs><linearGradient id="grad2_0" x1="0%" y1="100%" x2="100%" y2="0%"><stop offset="30%" stop-color="#63b4ee" stop-opacity="1"></stop><stop offset="70%" stop-color="#63b4ee" stop-opacity="1"></stop></linearGradient></defs><defs><linearGradient id="grad2_1" x1="0%" y1="100%" x2="100%" y2="0%"><stop offset="30%" stop-color="#b4d4f2" stop-opacity="1"></stop><stop offset="70%" stop-color="#63b4ee" stop-opacity="1"></stop></linearGradient></defs><defs><linearGradient id="grad2_2" x1="0%" y1="100%" x2="100%" y2="0%"><stop offset="30%" stop-color="#b4d4f2" stop-opacity="1"></stop><stop offset="70%" stop-color="#f5f5f5" stop-opacity="1"></stop></linearGradient></defs><g transform="translate(450, 900)"><path d="M-225 0C-200 -10.6 -175.1 -21.2 -177.4 -40.5C-179.8 -59.8 -209.5 -87.9 -202.7 -97.6C-195.9 -107.4 -152.6 -98.9 -137.6 -109.7C-122.6 -120.6 -135.7 -150.8 -129.1 -161.8C-122.4 -172.8 -95.8 -164.6 -78.1 -162.2C-60.3 -159.7 -51.4 -163.1 -39.8 -174.5C-28.3 -185.9 -14.1 -205.5 0 -225L0 0Z" fill="#d5e4f4"></path><path d="M-150 0C-133.4 -7.1 -116.7 -14.1 -118.3 -27C-119.9 -39.9 -139.7 -58.6 -135.1 -65.1C-130.6 -71.6 -101.8 -65.9 -91.7 -73.2C-81.7 -80.4 -90.5 -100.6 -86 -107.9C-81.6 -115.2 -63.9 -109.7 -52.1 -108.1C-40.2 -106.5 -34.3 -108.7 -26.6 -116.3C-18.9 -124 -9.4 -137 0 -150L0 0Z" fill="#8fc4f0"></path><path d="M-75 0C-66.7 -3.5 -58.4 -7.1 -59.1 -13.5C-59.9 -19.9 -69.8 -29.3 -67.6 -32.5C-65.3 -35.8 -50.9 -33 -45.9 -36.6C-40.9 -40.2 -45.2 -50.3 -43 -53.9C-40.8 -57.6 -31.9 -54.9 -26 -54.1C-20.1 -53.2 -17.1 -54.4 -13.3 -58.2C-9.4 -62 -4.7 -68.5 0 -75L0 0Z" fill="#63b4ee"></path></g><g transform="translate(0, 0)"><path d="M225 0C202.3 11.7 179.6 23.4 179.4 40.9C179.2 58.5 201.5 82 200.9 96.8C200.3 111.5 176.9 117.6 165 131.6C153 145.6 152.7 167.5 140.3 175.9C127.9 184.3 103.5 179.1 85.5 177.5C67.4 175.8 55.7 177.7 42.5 186.2C29.3 194.7 14.7 209.9 0 225L0 0Z" fill="#d5e4f4"></path><path d="M150 0C134.9 7.8 119.7 15.6 119.6 27.3C119.5 39 134.3 54.7 133.9 64.5C133.6 74.3 117.9 78.4 110 87.7C102 97 101.8 111.7 93.5 117.3C85.3 122.9 69 119.4 57 118.3C44.9 117.2 37.1 118.5 28.3 124.1C19.5 129.8 9.8 139.9 0 150L0 0Z" fill="#8fc4f0"></path><path d="M75 0C67.4 3.9 59.9 7.8 59.8 13.6C59.7 19.5 67.2 27.3 67 32.3C66.8 37.2 59 39.2 55 43.9C51 48.5 50.9 55.8 46.8 58.6C42.6 61.4 34.5 59.7 28.5 59.2C22.5 58.6 18.6 59.2 14.2 62.1C9.8 64.9 4.9 70 0 75L0 0Z" fill="#63b4ee"></path></g></svg>